HIERARCHY
ROOT Hips
{
	OFFSET -0.179506 -22.333345 2.821913
	CHANNELS 6 Xposition Yposition Zposition Zrotation Yrotation Xrotation 
	JOINT LeftUpLeg
	{
		OFFSET 6.951974 -9.140623 -0.681533
		CHANNELS 3 Zrotation Yrotation Xrotation
		JOINT LeftLeg
		{
			OFFSET 3.427654 -37.519855 -0.449580
			CHANNELS 3 Zrotation Yrotation Xrotation
			JOINT LeftFoot
			{
				OFFSET -1.359570 -39.796059 -4.369333
				CHANNELS 3 Zrotation Yrotation Xrotation
				JOINT LeftToe
				{
					OFFSET 2.635814 -5.579078 11.928840
					CHANNELS 3 Zrotation Yrotation Xrotation
					End Site
					{
						OFFSET 0.000000 0.000000 0.000000
					}
				}
			}
		}
	}
	JOINT RightUpLeg
	{
		OFFSET -6.767048 -9.052170 -0.431982
		CHANNELS 3 Zrotation Yrotation Xrotation
		JOINT RightLeg
		{
			OFFSET -3.829005 -38.256897 -0.885003
			CHANNELS 3 Zrotation Yrotation Xrotation
			JOINT RightFoot
			{
				OFFSET 1.577377 -39.841461 -4.231180
				CHANNELS 3 Zrotation Yrotation Xrotation
				JOINT RightToe
				{
					OFFSET -2.537174 -4.814398 12.334795
					CHANNELS 3 Zrotation Yrotation Xrotation
					End Site
					{
						OFFSET 0.000000 0.000000 0.000000
					}
				}
			}
		}
	}
	JOINT Spine
	{
		OFFSET -0.253288 10.896323 -2.669631
		CHANNELS 3 Zrotation Yrotation Xrotation
		JOINT Spine1
		{
			OFFSET 0.548704 13.518043 0.109247
			CHANNELS 3 Zrotation Yrotation Xrotation
			JOINT Spine2
			{
				OFFSET 0.145701 5.292222 2.542457
				CHANNELS 3 Zrotation Yrotation Xrotation
				JOINT Neck
				{
					OFFSET -0.277840 21.387037 -4.285703
					CHANNELS 3 Zrotation Yrotation Xrotation
					JOINT Head
					{
						OFFSET 0.515184 6.496960 5.134897
						CHANNELS 3 Zrotation Yrotation Xrotation
						End Site
						{
							OFFSET 0.000000 0.000000 0.000000
						}
					}
				}
				JOINT LeftShoulder
				{
					OFFSET 7.884473 12.174932 -3.408961
					CHANNELS 3 Zrotation Yrotation Xrotation
					JOINT LeftArm
					{
						OFFSET 9.097692 3.046888 -0.886815
						CHANNELS 3 Zrotation Yrotation Xrotation
						JOINT LeftForeArm
						{
							OFFSET 25.961220 -1.277207 -2.745643
							CHANNELS 3 Zrotation Yrotation Xrotation
							JOINT LeftHand
							{
								OFFSET 24.923361 0.898606 -0.117091
								CHANNELS 3 Zrotation Yrotation Xrotation
								End Site
								{
									OFFSET 0.000000 0.000000 0.000000
								}
							}
						}
					}
				}
				JOINT RightShoulder
				{
					OFFSET -8.175920 11.883285 -3.861528
					CHANNELS 3 Zrotation Yrotation Xrotation
					JOINT RightArm
					{
						OFFSET -9.601238 3.255117 -0.914307
						CHANNELS 3 Zrotation Yrotation Xrotation
						JOINT RightForeArm
						{
							OFFSET -25.374195 -1.332924 -2.140099
							CHANNELS 3 Zrotation Yrotation Xrotation
							JOINT RightHand
							{
								OFFSET -25.529810 0.777228 -0.555919
								CHANNELS 3 Zrotation Yrotation Xrotation
								End Site
								{
									OFFSET 0.000000 0.000000 0.000000
								}
							}
						}
					}
				}
			}
		}
	}
}
MOTION
Frames: 6
Frame Time: 0.033333
-61.205750 19.394505 89.764145 -104.038966 -2.981904 89.186384 7.456042 8.789723 -21.381962 -7.041324 13.729141 26.641926 1.444297 15.052582 -18.211392 nan nan nan -15.947212 -12.231562 6.688673 5.064012 -9.355409 7.994426 2.973069 -9.133042 -15.412629 nan nan nan 2.295193 5.896460 5.464894 1.205243 -5.865895 14.908759 0.309100 0.030523 -5.064028 -0.491479 20.140718 4.443987 -9.409821 18.422543 -0.367173 -29.514362 0.670125 0.940843 -56.677509 -0.491781 15.139142 8.620705 -21.148162 0.349566 -8.524902 -15.016119 2.195323 22.546469 1.445691 2.844874 49.173664 -4.443229 6.480158 -15.239386 33.711869 -12.343977 4.357364 14.097738 0.994967 
-61.457008 19.295820 89.670731 -103.350127 -3.010943 89.357874 7.406943 8.999076 -21.983772 -7.133870 13.746593 25.652522 1.266242 14.876197 -17.762933 nan nan nan -16.094424 -12.538711 7.049279 5.169759 -9.584739 7.624366 2.975017 -9.268670 -15.400653 nan nan nan 2.258532 6.098025 5.421218 1.124253 -5.833424 14.923139 0.321221 0.116232 -4.990698 -0.428566 19.920136 4.392108 -9.511772 18.174945 -0.502915 -29.523719 0.854656 0.815296 -56.693576 -0.292081 15.123294 8.542675 -21.183852 0.072526 -8.541443 -14.868417 2.050938 22.560835 1.458263 2.894454 49.277751 -4.389349 6.449329 -15.291520 33.793669 -12.391506 4.385485 14.003802 1.101935 
-61.718678 19.194208 89.571808 -102.687191 -3.026459 89.507348 7.376399 9.143176 -22.479603 -7.261882 13.738598 24.566243 1.181996 14.754312 -17.257440 nan nan nan -16.230955 -12.759198 7.394389 5.250249 -9.856393 7.341340 3.029492 -9.412648 -15.512537 nan nan nan 2.231226 6.297959 5.411057 1.052753 -5.741202 14.915800 0.338653 0.165067 -4.964025 -0.371581 19.709617 4.387937 -9.513412 17.886753 -0.482729 -29.572810 1.016319 0.739386 -56.630797 -0.004359 15.185588 8.509630 -21.176192 0.302823 -8.669919 -15.181349 2.101088 22.513483 1.445153 2.799447 49.412768 -4.401320 6.470376 -15.249501 33.795956 -12.440486 4.395794 14.166525 0.865169 
-61.958683 19.077784 89.472168 -102.057814 -3.072168 89.708327 7.302432 9.215103 -23.050600 -7.314258 13.655460 23.565344 1.373133 14.637049 -16.682902 nan nan nan -16.386302 -12.923940 7.600696 5.303991 -10.149932 7.266798 3.076544 -9.543251 -15.653682 nan nan nan 2.141696 6.488002 5.396040 0.980497 -5.619162 15.019394 0.351711 0.206599 -5.081519 -0.214594 19.591609 4.296316 -9.484304 17.566322 -0.294089 -29.588349 1.222051 0.721947 -56.523218 0.315058 15.100268 8.407669 -21.394294 0.603761 -9.014788 -15.346346 2.716802 22.531127 1.430721 2.756679 49.496021 -4.418676 6.508737 -15.245573 33.872929 -12.458320 4.532845 14.324670 0.867490 
-62.226147 18.939911 89.372963 -101.440994 -3.156470 89.922307 7.194956 9.185260 -23.602346 -7.373467 13.572284 22.571284 1.600219 14.546189 -16.139539 nan nan nan -16.639596 -13.225599 7.770817 5.354957 -10.384213 7.295010 3.107279 -9.560343 -15.807336 nan nan nan 2.003677 6.740733 5.372648 0.902876 -5.536174 15.118076 0.358367 0.233257 -5.210356 -0.085380 19.377769 4.261439 -9.411850 17.319345 -0.270733 -29.446694 1.410484 0.763449 -56.603920 0.621838 15.027321 8.315071 -21.655766 0.613672 -9.298415 -15.196569 2.991991 22.555832 1.364815 2.687244 49.625987 -4.432640 6.658585 -15.359949 33.960573 -12.367758 4.574073 14.369409 0.993766 
-62.529411 18.812115 89.273804 -100.787051 -3.144847 90.086607 7.158994 9.191725 -24.064519 -7.422898 13.486710 21.573245 1.774913 14.451743 -16.002645 nan nan nan -16.748597 -13.492721 8.087046 5.347057 -10.542718 7.153698 3.241500 -9.586782 -15.954970 nan nan nan 1.953374 6.954684 5.348369 0.876004 -5.517847 15.179789 0.371071 0.266718 -5.241580 0.015079 19.215843 4.261194 -9.444736 16.986798 -0.291293 -29.381403 1.592130 0.667415 -56.723848 0.894576 14.961601 8.275642 -21.591950 0.493674 -9.667176 -15.286479 3.075580 22.643119 1.371858 2.681913 49.680137 -4.391057 6.852620 -15.619517 33.998100 -12.197770 4.751472 14.434959 1.123529 
